<svg width="293" height="293" xmlns="http://www.w3.org/2000/svg" xmlns:xlink="http://www.w3.org/1999/xlink" xml:space="preserve" overflow="hidden"><g transform="translate(-67 -180)"><path d="M97.2156 299.947C97.826 300.252 98.7417 300.252 99.0469 299.642 103.93 294.758 110.034 291.096 116.749 288.959 141.166 281.94 168.024 297.81 177.18 324.669 181.453 336.877 181.148 350.306 175.959 362.515 174.128 366.482 171.992 370.145 169.245 373.502 168.94 373.807 168.94 374.418 169.245 375.028 169.55 375.639 170.16 375.944 170.771 375.639 195.798 373.807 206.48 374.112 229.981 349.696 235.475 343.897 241.884 337.182 249.515 329.552 249.82 329.247 250.125 328.636 249.82 328.331 249.82 327.721 249.515 327.416 248.904 327.416 240.358 324.058 233.339 317.649 229.676 309.408 213.5 270.036 178.401 252.945 144.218 261.491 123.769 266.374 106.677 279.803 96.9104 298.116 96.3 298.726 96.6052 299.642 97.2156 299.947Z" stroke="#1C1312" stroke-width="3.05208" fill="#896661"/><path d="M102.099 329.552C101.794 329.247 101.183 328.942 100.878 328.942 100.268 328.942 99.9625 329.247 99.6573 329.857 98.7417 332.604 99.0469 335.961 100.268 338.708 103.625 346.033 112.171 349.391 119.801 346.339 127.126 343.897 130.789 335.961 128.347 328.942 128.347 328.636 128.042 328.331 128.042 328.026L127.736 327.416C125.6 322.532 119.801 320.396 114.918 322.227 110.34 323.753 107.593 328.942 109.119 333.52 109.119 333.825 109.119 333.825 109.424 334.13 109.424 334.435 109.729 334.741 110.034 335.046 106.677 334.741 103.625 332.604 102.099 329.552Z" stroke="#1C1312" stroke-width="3.05208" fill="#896661"/><path d="M166.498 327.11C159.783 307.882 143.302 295.369 126.21 296.59 124.074 296.895 121.632 297.2 119.496 297.81 109.424 300.862 102.099 308.493 98.4365 320.091 98.1312 320.701 98.4365 321.311 99.0469 321.617 99.6573 321.922 100.573 321.922 100.878 321.311 101.794 320.396 102.709 319.785 103.625 318.87 107.287 315.207 112.171 313.071 117.054 312.766 128.042 311.545 138.114 319.48 139.334 330.468 139.945 341.15 132.009 350.306 121.632 351.222 121.022 351.222 120.717 351.527 120.411 352.138 120.106 352.748 120.411 353.053 120.717 353.664 128.652 363.735 139.029 368.924 148.796 368.314 150.932 368.008 153.069 367.703 155.205 366.787 168.024 361.904 172.602 344.507 166.498 327.11Z" stroke="#1C1312" stroke-width="3.05208" fill="#896661"/><path d="M300.79 314.292C303.536 307.577 307.199 301.168 311.167 295.369 314.829 293.843 316.966 289.57 315.745 285.602 314.829 282.855 312.998 281.024 310.251 280.108 305.978 278.888 301.705 281.329 300.484 285.602 300.179 286.823 300.179 288.349 300.484 289.57 295.906 296.59 291.939 303.915 288.886 311.545L288.276 313.376C287.666 315.513 286.75 317.344 286.14 319.48 284.919 323.143 283.698 326.195 282.172 329.552 279.425 335.961 273.016 339.624 265.996 339.014L252.567 337.487C218.383 373.502 212.584 382.658 170.771 382.658 143.607 382.658 128.042 374.112 117.054 363.125L77.9875 375.944C74.9354 376.859 73.1042 380.522 74.0198 383.574 74.6302 385.405 76.1562 386.931 78.2927 387.542 86.8385 389.983 95.9948 391.509 104.846 392.12 110.95 392.12 252.872 392.12 287.055 392.12 291.633 392.12 295.906 389.983 298.958 386.321 301.705 382.964 305.062 378.385 307.809 374.112 310.861 369.84 310.556 363.735 307.199 359.768L307.199 359.768C306.283 358.547 306.283 356.716 307.199 355.495 312.388 348.78 318.186 342.371 324.596 336.877 331.005 332.299 337.72 328.331 344.74 324.669 349.013 325.279 353.285 322.227 353.896 317.954 354.201 314.902 352.98 311.85 350.539 310.324 348.707 309.103 346.266 308.798 344.129 309.408 341.382 309.714 339.246 311.85 338.635 314.292 331.31 317.954 324.596 322.227 317.881 327.11 311.167 331.994 303.842 336.572 296.517 340.54 296.517 331.689 298.043 322.837 300.79 314.292Z" stroke="#1C1312" stroke-width="3.05208" fill="#896661"/></g></svg>